<?xml version="1.0" standalone="no"?>
<!DOCTYPE svg PUBLIC "-//W3C//DTD SVG 20010904//EN"
 "http://www.w3.org/TR/2001/REC-SVG-20010904/DTD/svg10.dtd">
<svg version="1.0" xmlns="http://www.w3.org/2000/svg"
 width="98.000000pt" height="98.000000pt" viewBox="0 0 98.000000 98.000000"
 preserveAspectRatio="xMidYMid meet">
<metadata>
Created by potrace 1.14, written by Peter Selinger 2001-2017
</metadata>
<g transform="translate(0.000000,98.000000) scale(0.100000,-0.100000)"
fill="#000000" stroke="none">
<path d="M541 783 c8 -13 21 -23 29 -22 10 0 11 2 2 6 -6 2 -9 10 -5 16 3 7 3
9 -2 5 -4 -4 -15 -2 -23 5 -13 11 -14 9 -1 -10z"/>
<path d="M519 728 c0 -2 -2 -16 -4 -33 -3 -24 -2 -27 6 -12 6 9 8 21 4 26 -3
5 1 12 7 14 10 4 10 6 1 6 -7 1 -13 0 -14 -1z"/>
<path d="M207 667 c-90 -90 -157 -170 -157 -185 0 -9 43 -62 94 -117 90 -95
95 -99 120 -87 15 6 26 20 26 31 0 10 -30 51 -67 91 -38 40 -69 76 -71 80 -2
4 29 42 68 84 76 82 85 111 42 127 -19 7 -29 3 -55 -24z"/>
<path d="M706 688 c-30 -17 -16 -48 54 -124 39 -42 70 -80 68 -84 -2 -4 -33
-40 -70 -80 -38 -39 -68 -80 -68 -89 0 -22 19 -41 40 -41 17 0 177 166 194
200 11 24 5 32 -92 137 -83 89 -96 98 -126 81z"/>
<path d="M532 660 c0 -14 2 -19 5 -12 2 6 2 18 0 25 -3 6 -5 1 -5 -13z"/>
<path d="M516 615 c-3 -8 -1 -15 4 -15 6 0 10 7 10 15 0 8 -2 15 -4 15 -2 0
-6 -7 -10 -15z"/>
<path d="M516 575 c-11 -8 -15 -15 -9 -15 7 0 15 5 18 10 4 6 11 7 17 4 7 -4
8 -2 4 4 -9 14 -7 15 -30 -3z"/>
<path d="M464 531 c0 -11 5 -17 13 -14 10 4 11 9 2 19 -15 18 -15 18 -15 -5z"/>
<path d="M500 540 c8 -5 20 -10 25 -10 6 0 3 5 -5 10 -8 5 -19 10 -25 10 -5 0
-3 -5 5 -10z"/>
<path d="M500 511 c0 -10 19 -25 25 -20 1 2 -3 10 -11 17 -8 7 -14 8 -14 3z"/>
<path d="M455 481 c-3 -5 0 -13 6 -17 7 -4 9 -3 5 4 -3 5 0 13 6 15 9 4 10 6
1 6 -6 1 -14 -3 -18 -8z"/>
<path d="M480 466 c0 -2 7 -7 16 -10 8 -3 12 -2 9 4 -6 10 -25 14 -25 6z"/>
<path d="M455 441 c-6 -11 13 -26 22 -17 4 3 1 6 -6 6 -7 0 -9 5 -6 10 3 6 4
10 1 10 -3 0 -7 -4 -11 -9z"/>
<path d="M420 379 c0 -5 5 -7 10 -4 6 3 10 8 10 11 0 2 -4 4 -10 4 -5 0 -10
-5 -10 -11z"/>
<path d="M450 380 c0 -5 5 -10 10 -10 6 0 10 5 10 10 0 6 -4 10 -10 10 -5 0
-10 -4 -10 -10z"/>
<path d="M415 340 c-3 -6 1 -7 9 -4 18 7 21 14 7 14 -6 0 -13 -4 -16 -10z"/>
<path d="M450 305 c0 -5 5 -17 10 -25 5 -8 10 -10 10 -5 0 6 -5 17 -10 25 -5
8 -10 11 -10 5z"/>
<path d="M398 273 c7 -3 16 -2 19 1 4 3 -2 6 -13 5 -11 0 -14 -3 -6 -6z"/>
<path d="M434 260 c0 -13 4 -16 10 -10 7 7 7 13 0 20 -6 6 -10 3 -10 -10z"/>
<path d="M397 249 c7 -7 15 -10 18 -7 3 3 -2 9 -12 12 -14 6 -15 5 -6 -5z"/>
<path d="M423 219 c9 -6 14 -15 11 -21 -4 -7 -2 -8 5 -4 14 9 -3 36 -23 36 -6
0 -3 -5 7 -11z"/>
</g>
</svg>
